<svg version="1.1" id="Layer_1"  x="0px" y="0px"
	 width="100%" viewBox="0 0 1080 1080" enable-background="new 0 0 1080 1080" xml:space="preserve">
<path fill="#000000" opacity="1.000000" stroke="none" 
	d="
M1081.000000,1079.639160 
	C1080.802368,1080.395142 1080.619995,1080.946045 1080.404785,1080.959351 
	C1079.076538,1081.040161 1077.740967,1081.000000 1076.407715,1081.000000 
	C717.941528,1081.000000 359.475342,1081.000000 1.004580,1081.000000 
	C1.000000,1080.836426 1.000000,1080.672729 1.000000,1080.509155 
	C1.000000,720.709778 1.000000,360.910370 1.000000,1.110997 
	C1.129652,1.073998 1.259303,1.004564 1.388956,1.004563 
	C361.188354,0.999988 720.987732,1.000000 1081.000000,1.000000 
	C1081.000000,360.395111 1081.000000,719.790283 1081.000000,1079.639160 
M446.500000,717.000000 
	C402.399750,717.000000 358.299530,717.000000 314.214600,717.000000 
	C314.214600,719.284302 314.214600,720.899719 314.214600,722.808777 
	C315.700806,722.878784 316.994965,722.992981 318.289154,722.993103 
	C413.118683,723.001404 507.948242,722.983398 602.777710,723.056152 
	C607.161072,723.059509 609.073669,721.846680 607.517761,717.350525 
	C607.112976,717.230408 606.802612,717.057800 606.492126,717.057678 
	C553.494751,717.030396 500.497375,717.015442 446.500000,717.000000 
M331.027161,675.308350 
	C327.217865,669.844849 326.867828,669.763367 322.099365,673.395142 
	C316.556122,677.616943 310.832001,681.637268 305.636963,686.252258 
	C304.487061,687.273743 304.353088,690.937134 305.270050,692.483337 
	C307.346588,695.984741 310.576324,698.779297 312.940735,702.140137 
	C314.739655,704.697205 315.971527,704.238708 318.067230,702.543579 
	C324.334351,697.474243 330.782684,692.629028 337.055359,687.777405 
	C339.842438,691.303467 342.333984,694.455627 344.736053,697.494629 
	C341.383423,701.783020 338.063202,706.030090 334.742981,710.277100 
	C335.122375,710.629150 335.501770,710.981262 335.881165,711.333374 
	C341.099426,709.444946 342.860413,703.722168 346.770569,700.380554 
	C350.088196,704.120544 353.405853,707.860535 356.723480,711.600525 
	C357.412781,711.022156 358.102051,710.443787 358.791351,709.865417 
	C355.665771,705.685913 352.540222,701.506348 349.252777,697.110413 
	C351.078796,694.705322 352.970154,691.873230 355.262634,689.415222 
	C355.899445,688.732361 358.187683,688.576477 358.932159,689.168091 
	C364.646973,693.709534 370.081757,698.606262 375.850128,703.074341 
	C376.635223,703.682434 379.340759,703.038452 380.210632,702.098328 
	C384.064087,697.933838 387.572083,693.449585 391.507507,688.717346 
	C388.778992,686.447021 386.289093,684.376709 383.800842,682.304382 
	C381.288116,680.211731 378.909637,677.927979 376.241364,676.057373 
	C366.811737,669.446533 366.956390,669.633240 359.887939,679.303040 
	C356.000977,684.620544 351.379181,689.400940 347.169769,694.328613 
	C341.600403,687.826233 336.507080,681.879578 331.027161,675.308350 
M426.579163,704.999084 
	C428.243561,704.999329 429.908295,704.978943 431.572327,705.003357 
	C440.265289,705.130676 443.605042,700.123779 442.049835,692.063904 
	C441.808319,690.812256 442.277344,689.017334 443.096100,688.044556 
	C445.391571,685.317200 445.467773,682.677307 444.182007,679.483398 
	C442.944580,676.409546 440.795990,675.828979 437.886993,675.966492 
	C434.731628,676.115723 431.545166,675.807007 428.411133,676.105591 
	C427.237335,676.217346 425.376556,677.309998 425.182434,678.238403 
	C423.356232,686.970825 421.823273,695.764526 420.121124,704.999084 
	C422.032898,704.999084 423.837799,704.999084 426.579163,704.999084 
M599.015991,694.494690 
	C599.756775,690.430481 600.497559,686.366272 601.233093,682.330811 
	C595.285583,682.330811 590.106079,681.562622 585.295044,682.564087 
	C581.147827,683.427368 578.162659,693.550293 578.993225,699.623718 
	C579.812012,705.610535 584.313354,705.076050 588.572083,705.992859 
	C586.321838,706.912720 584.090637,707.042114 581.861450,707.014526 
	C580.059998,706.992310 577.585083,704.595703 577.029785,708.509949 
	C576.607788,711.484070 577.263428,713.783569 580.810120,713.969299 
	C582.802551,714.073608 584.825562,713.810242 586.798279,714.033997 
	C593.289734,714.770020 595.999390,709.470886 596.990540,704.886902 
	C597.676819,701.713257 598.325012,698.531433 599.015991,694.494690 
M491.948517,702.937988 
	C494.430176,703.861511 496.911804,704.785034 499.393463,705.708557 
	C499.694458,705.231567 499.995453,704.754578 500.296417,704.277588 
	C498.989166,700.577820 497.681885,696.877991 496.400177,693.250488 
	C500.379944,689.607239 502.768219,683.219543 500.735168,679.700806 
	C496.746704,672.797791 489.955383,677.331543 484.084778,675.720764 
	C481.897461,685.607666 479.817596,695.008911 477.661804,704.753296 
	C480.843262,704.753296 483.261017,704.753296 485.772583,704.753296 
	C486.487183,701.409973 487.147919,698.318481 488.016388,694.255188 
	C489.533997,697.580261 490.581390,699.875122 491.948517,702.937988 
M395.687592,704.996826 
	C397.327820,704.996826 398.968048,704.996826 400.475433,704.996826 
	C402.828674,698.681885 404.117157,698.062439 410.834137,699.736694 
	C410.967194,701.348816 411.100281,702.960876 411.245728,704.723145 
	C413.862915,704.723145 416.255310,704.723145 419.299469,704.723145 
	C418.096741,695.048767 416.937073,685.720947 415.727692,675.993103 
	C411.716309,676.489807 407.482330,674.175842 404.898560,679.486389 
	C401.294250,686.894348 397.092346,694.010193 393.396454,701.376709 
	C393.010437,702.146179 394.312958,703.762817 395.687592,704.996826 
M519.116455,682.390259 
	C518.233093,682.334167 517.328613,682.381042 516.469666,682.205505 
	C510.402344,680.965332 506.348328,682.606384 504.332611,687.343872 
	C503.445221,689.429504 502.683716,691.599182 502.152222,693.800049 
	C500.369293,701.182739 504.271820,705.668335 511.674255,704.993347 
	C513.540833,704.823120 515.540710,705.359741 517.288269,704.878174 
	C518.676025,704.495789 520.538147,703.261047 520.864075,702.048462 
	C522.212097,697.032776 523.051514,691.880676 524.088013,686.780762 
	C524.386902,685.309998 524.719788,683.846191 525.104065,682.069092 
	C522.875854,682.069092 521.396301,682.069092 519.116455,682.390259 
M463.001221,704.935120 
	C463.871704,702.477234 464.742188,700.019348 465.799530,697.033813 
	C460.937134,697.062256 456.534729,701.266907 454.434479,696.390381 
	C452.702087,692.368042 453.181183,686.972595 457.181427,684.192627 
	C459.663910,682.467529 463.670837,682.936218 468.231110,682.227905 
	C471.115417,677.436890 471.079742,677.172302 466.177063,675.952576 
	C455.026245,673.178406 448.729370,677.246155 445.998230,688.987976 
	C443.380280,700.243225 447.125854,705.002930 458.599091,704.999512 
	C459.764099,704.999207 460.929077,704.994019 463.001221,704.935120 
M571.380249,682.000061 
	C567.369507,682.000061 563.358826,682.000061 559.150696,682.000061 
	C557.416809,689.767578 555.768555,697.151184 554.065125,704.782227 
	C556.734863,704.782227 559.166626,704.782227 561.408447,704.782227 
	C563.678894,699.130493 563.020508,692.441345 569.514160,687.458008 
	C568.341370,694.041748 567.406799,699.288086 566.434692,704.745361 
	C568.669617,704.745361 571.087585,704.745361 574.249268,704.745361 
	C575.161682,699.036682 576.342224,693.317749 576.884827,687.538818 
	C577.148621,684.728516 576.186646,681.834534 571.380249,682.000061 
M533.862549,691.690063 
	C534.893799,690.463867 535.925110,689.237671 536.956604,688.011230 
	C538.460266,688.349121 540.252136,689.350342 541.205383,688.826294 
	C542.649536,688.032166 543.743591,686.286743 544.484619,684.709717 
	C544.723999,684.200439 543.554871,682.366455 542.740662,682.128357 
	C535.291687,679.950073 530.270325,682.334778 526.910950,689.393738 
	C522.095886,699.511475 525.849243,705.496155 536.821472,704.912720 
	C538.551758,704.820801 541.070740,704.002869 541.697388,702.754028 
	C542.437500,701.278870 541.517822,698.970825 541.287048,696.725281 
	C533.139832,700.101135 532.614746,699.735535 533.862549,691.690063 
M550.834961,704.333862 
	C552.245361,697.055542 553.655762,689.777222 555.307739,681.252014 
	C551.968262,682.179077 547.900940,682.314392 547.510315,683.582336 
	C545.401672,690.426941 544.204529,697.552307 542.627747,704.885010 
	C545.841125,704.885010 547.988342,704.885010 550.834961,704.333862 
M549.130432,680.583618 
	C550.269348,680.721191 551.553467,681.256592 552.514343,680.906006 
	C554.083923,680.333374 555.672607,679.393433 556.783508,678.178772 
	C557.261963,677.655579 556.894348,675.337402 556.342163,675.086365 
	C554.754761,674.364807 552.801025,673.790588 551.129089,674.049255 
	C547.557068,674.601990 547.643311,677.230469 549.130432,680.583618 
z"/>
<path fill="#FD0404" opacity="1.000000" stroke="none" 
	d="
M447.000000,717.000000 
	C500.497375,717.015442 553.494751,717.030396 606.492126,717.057678 
	C606.802612,717.057800 607.112976,717.230408 607.517761,717.350525 
	C609.073669,721.846680 607.161072,723.059509 602.777710,723.056152 
	C507.948242,722.983398 413.118683,723.001404 318.289154,722.993103 
	C316.994965,722.992981 315.700806,722.878784 314.214600,722.808777 
	C314.214600,720.899719 314.214600,719.284302 314.214600,717.000000 
	C358.299530,717.000000 402.399750,717.000000 447.000000,717.000000 
z"/>
<path fill="#FFFFFF" opacity="1.000000" stroke="none" 
	d="
M331.220459,675.620605 
	C336.507080,681.879578 341.600403,687.826233 347.169769,694.328613 
	C351.379181,689.400940 356.000977,684.620544 359.887939,679.303040 
	C366.956390,669.633240 366.811737,669.446533 376.241364,676.057373 
	C378.909637,677.927979 381.288116,680.211731 383.800842,682.304382 
	C386.289093,684.376709 388.778992,686.447021 391.507507,688.717346 
	C387.572083,693.449585 384.064087,697.933838 380.210632,702.098328 
	C379.340759,703.038452 376.635223,703.682434 375.850128,703.074341 
	C370.081757,698.606262 364.646973,693.709534 358.932159,689.168091 
	C358.187683,688.576477 355.899445,688.732361 355.262634,689.415222 
	C352.970154,691.873230 351.078796,694.705322 349.252777,697.110413 
	C352.540222,701.506348 355.665771,705.685913 358.791351,709.865417 
	C358.102051,710.443787 357.412781,711.022156 356.723480,711.600525 
	C353.405853,707.860535 350.088196,704.120544 346.765076,700.375610 
	C342.860413,703.722168 341.099426,709.444946 335.881165,711.333374 
	C335.501770,710.981262 335.122375,710.629150 334.742981,710.277100 
	C338.063202,706.030090 341.383423,701.783020 344.736053,697.494629 
	C342.333984,694.455627 339.842438,691.303467 337.055359,687.777405 
	C330.782684,692.629028 324.334351,697.474243 318.067230,702.543579 
	C315.971527,704.238708 314.739655,704.697205 312.940735,702.140137 
	C310.576324,698.779297 307.346588,695.984741 305.270050,692.483337 
	C304.353088,690.937134 304.487061,687.273743 305.636963,686.252258 
	C310.832001,681.637268 316.556122,677.616943 322.099365,673.395142 
	C326.867828,669.763367 327.217865,669.844849 331.220459,675.620605 
z"/>
<path fill="#FD0505" opacity="1.000000" stroke="none" 
	d="
M426.110931,704.999084 
	C423.837799,704.999084 422.032898,704.999084 420.121124,704.999084 
	C421.823273,695.764526 423.356232,686.970825 425.182434,678.238403 
	C425.376556,677.309998 427.237335,676.217346 428.411133,676.105591 
	C431.545166,675.807007 434.731628,676.115723 437.886993,675.966492 
	C440.795990,675.828979 442.944580,676.409546 444.182007,679.483398 
	C445.467773,682.677307 445.391571,685.317200 443.096100,688.044556 
	C442.277344,689.017334 441.808319,690.812256 442.049835,692.063904 
	C443.605042,700.123779 440.265289,705.130676 431.572327,705.003357 
	C429.908295,704.978943 428.243561,704.999329 426.110931,704.999084 
z"/>
<path fill="#FD0505" opacity="1.000000" stroke="none" 
	d="
M599.003052,694.923950 
	C598.325012,698.531433 597.676819,701.713257 596.990540,704.886902 
	C595.999390,709.470886 593.289734,714.770020 586.798279,714.033997 
	C584.825562,713.810242 582.802551,714.073608 580.810120,713.969299 
	C577.263428,713.783569 576.607788,711.484070 577.029785,708.509949 
	C577.585083,704.595703 580.059998,706.992310 581.861450,707.014526 
	C584.090637,707.042114 586.321838,706.912720 588.572083,705.992859 
	C584.313354,705.076050 579.812012,705.610535 578.993225,699.623718 
	C578.162659,693.550293 581.147827,683.427368 585.295044,682.564087 
	C590.106079,681.562622 595.285583,682.330811 601.233093,682.330811 
	C600.497559,686.366272 599.756775,690.430481 599.003052,694.923950 
M586.777588,695.696289 
	C587.249146,696.760803 587.720764,697.825256 588.480835,699.541016 
	C591.277527,695.476379 593.250488,692.313354 590.329895,687.074036 
	C588.933716,690.367676 587.950256,692.687683 586.777588,695.696289 
z"/>
<path fill="#FD0505" opacity="1.000000" stroke="none" 
	d="
M491.788666,702.554016 
	C490.581390,699.875122 489.533997,697.580261 488.016388,694.255188 
	C487.147919,698.318481 486.487183,701.409973 485.772583,704.753296 
	C483.261017,704.753296 480.843262,704.753296 477.661804,704.753296 
	C479.817596,695.008911 481.897461,685.607666 484.084778,675.720764 
	C489.955383,677.331543 496.746704,672.797791 500.735168,679.700806 
	C502.768219,683.219543 500.379944,689.607239 496.400177,693.250488 
	C497.681885,696.877991 498.989166,700.577820 500.296417,704.277588 
	C499.995453,704.754578 499.694458,705.231567 499.393463,705.708557 
	C496.911804,704.785034 494.430176,703.861511 491.788666,702.554016 
z"/>
<path fill="#FD0505" opacity="1.000000" stroke="none" 
	d="
M395.259827,704.991577 
	C394.312958,703.762817 393.010437,702.146179 393.396454,701.376709 
	C397.092346,694.010193 401.294250,686.894348 404.898560,679.486389 
	C407.482330,674.175842 411.716309,676.489807 415.727692,675.993103 
	C416.937073,685.720947 418.096741,695.048767 419.299469,704.723145 
	C416.255310,704.723145 413.862915,704.723145 411.245728,704.723145 
	C411.100281,702.960876 410.967194,701.348816 410.829651,699.734863 
	C404.117157,698.062439 402.828674,698.681885 400.475433,704.996826 
	C398.968048,704.996826 397.327820,704.996826 395.259827,704.991577 
z"/>
<path fill="#FD0505" opacity="1.000000" stroke="none" 
	d="
M519.516602,682.229675 
	C521.396301,682.069092 522.875854,682.069092 525.104065,682.069092 
	C524.719788,683.846191 524.386902,685.309998 524.088013,686.780762 
	C523.051514,691.880676 522.212097,697.032776 520.864075,702.048462 
	C520.538147,703.261047 518.676025,704.495789 517.288269,704.878174 
	C515.540710,705.359741 513.540833,704.823120 511.674255,704.993347 
	C504.271820,705.668335 500.369293,701.182739 502.152222,693.800049 
	C502.683716,691.599182 503.445221,689.429504 504.332611,687.343872 
	C506.348328,682.606384 510.402344,680.965332 516.469666,682.205505 
	C517.328613,682.381042 518.233093,682.334167 519.516602,682.229675 
M512.921509,689.380493 
	C510.717010,692.186768 508.437653,694.980591 511.711975,699.422668 
	C513.237183,696.835571 514.907898,694.793335 515.588745,692.462036 
	C515.866272,691.511841 513.996094,689.934326 512.921509,689.380493 
z"/>
<path fill="#FD0505" opacity="1.000000" stroke="none" 
	d="
M462.547668,704.963074 
	C460.929077,704.994019 459.764099,704.999207 458.599091,704.999512 
	C447.125854,705.002930 443.380280,700.243225 445.998230,688.987976 
	C448.729370,677.246155 455.026245,673.178406 466.177063,675.952576 
	C471.079742,677.172302 471.115417,677.436890 468.231110,682.227905 
	C463.670837,682.936218 459.663910,682.467529 457.181427,684.192627 
	C453.181183,686.972595 452.702087,692.368042 454.434479,696.390381 
	C456.534729,701.266907 460.937134,697.062256 465.799530,697.033813 
	C464.742188,700.019348 463.871704,702.477234 462.547668,704.963074 
z"/>
<path fill="#FD0505" opacity="1.000000" stroke="none" 
	d="
M571.814270,682.000671 
	C576.186646,681.834534 577.148621,684.728516 576.884827,687.538818 
	C576.342224,693.317749 575.161682,699.036682 574.249268,704.745361 
	C571.087585,704.745361 568.669617,704.745361 566.434692,704.745361 
	C567.406799,699.288086 568.341370,694.041748 569.514160,687.458008 
	C563.020508,692.441345 563.678894,699.130493 561.408447,704.782227 
	C559.166626,704.782227 556.734863,704.782227 554.065125,704.782227 
	C555.768555,697.151184 557.416809,689.767578 559.150696,682.000061 
	C563.358826,682.000061 567.369507,682.000061 571.814270,682.000671 
z"/>
<path fill="#FD0505" opacity="1.000000" stroke="none" 
	d="
M533.577759,691.973267 
	C532.614746,699.735535 533.139832,700.101135 541.287048,696.725281 
	C541.517822,698.970825 542.437500,701.278870 541.697388,702.754028 
	C541.070740,704.002869 538.551758,704.820801 536.821472,704.912720 
	C525.849243,705.496155 522.095886,699.511475 526.910950,689.393738 
	C530.270325,682.334778 535.291687,679.950073 542.740662,682.128357 
	C543.554871,682.366455 544.723999,684.200439 544.484619,684.709717 
	C543.743591,686.286743 542.649536,688.032166 541.205383,688.826294 
	C540.252136,689.350342 538.460266,688.349121 536.956604,688.011230 
	C535.925110,689.237671 534.893799,690.463867 533.577759,691.973267 
z"/>
<path fill="#FD0505" opacity="1.000000" stroke="none" 
	d="
M550.485291,704.609436 
	C547.988342,704.885010 545.841125,704.885010 542.627747,704.885010 
	C544.204529,697.552307 545.401672,690.426941 547.510315,683.582336 
	C547.900940,682.314392 551.968262,682.179077 555.307739,681.252014 
	C553.655762,689.777222 552.245361,697.055542 550.485291,704.609436 
z"/>
<path fill="#FD0404" opacity="1.000000" stroke="none" 
	d="
M548.840332,680.287842 
	C547.643311,677.230469 547.557068,674.601990 551.129089,674.049255 
	C552.801025,673.790588 554.754761,674.364807 556.342163,675.086365 
	C556.894348,675.337402 557.261963,677.655579 556.783508,678.178772 
	C555.672607,679.393433 554.083923,680.333374 552.514343,680.906006 
	C551.553467,681.256592 550.269348,680.721191 548.840332,680.287842 
z"/>
<path fill="#000000" opacity="1.000000" stroke="none" 
	d="
M586.872192,695.351990 
	C587.950256,692.687683 588.933716,690.367676 590.329895,687.074036 
	C593.250488,692.313354 591.277527,695.476379 588.480835,699.541016 
	C587.720764,697.825256 587.249146,696.760803 586.872192,695.351990 
z"/>
<path fill="#000000" opacity="1.000000" stroke="none" 
	d="
M513.012268,689.011353 
	C513.996094,689.934326 515.866272,691.511841 515.588745,692.462036 
	C514.907898,694.793335 513.237183,696.835571 511.711975,699.422668 
	C508.437653,694.980591 510.717010,692.186768 513.012268,689.011353 
z"/>
</svg>