<svg version="1.1" id="Layer_1" xmlns="http://www.w3.org/2000/svg" xmlns:xlink="http://www.w3.org/1999/xlink" x="0px" y="0px"
	 width="100%" viewBox="0 0 310 130" enable-background="new 0 0 310 130" xml:space="preserve">
<path fill="#0C141F" opacity="1.000000" stroke="none" 
	d="
M239.000000,131.000000 
	C159.333359,131.000000 80.166718,131.000000 1.000053,131.000000 
	C1.000035,87.666702 1.000035,44.333405 1.000018,1.000082 
	C104.333260,1.000055 207.666519,1.000055 310.999817,1.000027 
	C310.999878,44.333252 310.999878,87.666504 310.999939,130.999878 
	C287.166656,131.000000 263.333344,131.000000 239.000000,131.000000 
M253.500000,59.970257 
	C172.082520,59.970257 90.665039,59.970257 9.329729,59.970257 
	C9.329729,62.840359 9.329729,65.055817 9.329729,67.348167 
	C107.966995,67.348167 206.210785,67.348167 304.675720,67.348167 
	C304.675720,64.843727 304.675720,62.620747 304.675720,59.970245 
	C287.755707,59.970245 271.127869,59.970245 253.500000,59.970257 
M227.500000,74.003197 
	C154.771988,74.003197 82.043968,74.003197 9.260021,74.003197 
	C9.260021,76.687943 9.260021,78.767036 9.260021,80.970505 
	C107.874596,80.970505 206.197693,80.970505 304.641357,80.970505 
	C304.641357,78.546211 304.641357,76.481056 304.641357,74.003204 
	C279.065826,74.003204 253.782913,74.003204 227.500000,74.003197 
M143.562622,43.013821 
	C154.390961,43.007317 165.222641,43.136829 176.044586,42.870480 
	C178.021194,42.821831 181.430832,41.370350 181.598267,40.197891 
	C181.919418,37.949059 180.918549,35.029900 179.474899,33.150116 
	C178.113693,31.377674 175.477875,30.584133 173.333328,29.319004 
	C175.598953,27.380899 178.248367,25.748892 179.954987,23.424629 
	C181.036774,21.951323 181.343246,19.254227 180.796707,17.474764 
	C180.444717,16.328751 177.924484,15.199220 176.360428,15.177305 
	C163.403534,14.995770 150.443008,15.074508 137.339417,15.074508 
	C137.339417,24.556168 137.339417,33.704437 137.339417,43.013668 
	C139.272507,43.013668 140.927185,43.013668 143.562622,43.013821 
M185.978271,29.323637 
	C186.649689,35.023872 190.664444,37.930359 195.331787,40.013657 
	C206.660538,45.070316 218.177307,44.683697 229.966568,40.718922 
	C229.966568,39.896095 230.003952,39.073952 229.955643,38.256874 
	C229.910812,37.498512 229.774490,36.745560 229.671799,35.937908 
	C218.773987,40.123020 207.985413,41.001656 197.515671,36.019001 
	C194.807800,34.730305 191.504318,31.123575 191.542938,28.629131 
	C191.582199,26.093641 195.131989,23.268614 197.676636,21.236917 
	C199.368454,19.886156 201.957031,19.539927 204.209000,19.030388 
	C212.918686,17.059687 221.371536,18.110943 229.695145,21.592619 
	C229.695145,19.739183 229.695145,18.015650 229.695145,16.473618 
	C227.975601,15.990812 226.569687,15.521174 225.130188,15.203870 
	C214.649384,12.893610 204.332108,12.972727 194.487305,17.805258 
	C190.031952,19.992254 186.289658,22.950066 185.978271,29.323637 
M97.810081,33.035011 
	C106.347000,30.396935 122.593658,36.238911 125.474892,42.798851 
	C127.961311,42.798851 130.346375,42.798851 132.611267,42.798851 
	C125.188660,33.775383 117.880157,24.890623 110.132988,15.472588 
	C108.988167,15.472588 106.841331,15.472588 105.422119,15.472588 
	C97.934448,24.984737 90.770172,34.086052 83.748360,43.006386 
	C85.733620,43.006386 88.214752,43.006386 89.574791,43.006386 
	C92.424622,39.425205 94.801361,36.438526 97.810081,33.035011 
M190.596344,114.873726 
	C187.644730,112.031433 186.583878,107.143158 180.777130,105.565407 
	C182.429626,111.299934 179.717407,116.523697 182.498016,121.045967 
	C183.038651,121.017677 183.579285,120.989388 184.119919,120.961090 
	C184.119919,117.865112 184.119919,114.769135 184.119919,111.569855 
	C188.345901,114.252930 188.851242,119.951927 193.475555,121.073830 
	C193.475555,115.753731 193.475555,110.943108 193.475555,106.132492 
	C193.119385,106.126076 192.763214,106.119659 192.407059,106.113243 
	C191.981766,109.194916 191.556458,112.276588 190.596344,114.873726 
M118.317123,117.718079 
	C117.941193,118.696243 117.565254,119.674400 117.189316,120.652565 
	C122.440926,116.193527 127.314896,116.463272 132.367325,121.339699 
	C130.729111,116.310501 128.959808,112.082245 127.048515,107.919182 
	C126.690033,107.138344 125.636368,106.006248 125.127930,106.112282 
	C124.228943,106.299782 123.189232,107.156807 122.760429,108.010788 
	C121.277695,110.963730 120.032867,114.036118 118.317123,117.718079 
M219.342636,118.143799 
	C219.125595,116.652168 218.908554,115.160545 218.862701,114.845459 
	C216.620667,116.283653 214.263077,118.854141 212.921524,118.403038 
	C211.015289,117.762054 208.761002,114.970451 208.630051,112.968567 
	C208.424225,109.822319 211.131134,108.134438 214.426453,108.388710 
	C215.878159,108.500717 217.298813,109.015099 219.419479,109.505386 
	C218.818298,108.209969 218.742752,107.629059 218.426392,107.429115 
	C214.572433,104.993179 209.746399,105.594498 207.274948,109.023903 
	C204.976578,112.213135 205.071625,115.571007 207.707291,118.572830 
	C210.601578,121.869209 214.693024,121.910378 219.342636,118.143799 
M95.025406,106.774818 
	C95.025406,111.531929 95.025406,116.289040 95.025406,121.046150 
	C95.577332,121.098122 96.129265,121.150101 96.681190,121.202072 
	C97.217468,119.698830 97.753746,118.195587 98.662056,115.649506 
	C101.506798,117.760742 103.892410,119.531235 106.278023,121.301727 
	C106.479881,121.043480 106.681732,120.785225 106.883583,120.526970 
	C106.062126,119.153770 105.240662,117.780571 104.419197,116.407372 
	C105.822899,113.973160 107.210930,110.886703 106.247612,109.002235 
	C105.382202,107.309311 101.983810,106.771790 99.603943,106.050766 
	C98.397736,105.685326 96.973373,106.039932 95.025406,106.774818 
M142.236923,111.161926 
	C141.271942,115.448433 142.596756,118.808350 146.694717,120.507759 
	C149.864731,121.822357 152.866974,121.274910 156.186874,117.516869 
	C151.076080,118.019974 145.580933,120.703499 144.970764,114.256271 
	C144.196625,106.076523 151.033691,109.406616 155.549881,109.090805 
	C150.601654,104.405884 146.651138,104.987190 142.236923,111.161926 
M169.021423,106.963203 
	C168.171280,106.948166 167.321136,106.933136 166.471008,106.918098 
	C166.587402,111.529701 166.691498,116.141853 166.896454,120.749512 
	C166.901199,120.856537 168.042053,120.913025 169.072113,121.048012 
	C169.072113,116.485046 169.072113,112.183464 169.021423,106.963203 
M301.316833,113.130936 
	C302.356476,115.774597 304.268555,116.308670 306.235809,114.502342 
	C306.866882,113.922882 306.746613,111.277420 306.064270,110.750732 
	C304.072479,109.213249 302.072876,109.503708 301.316833,113.130936 
z"/>
<path fill="#F01616" opacity="1.000000" stroke="none" 
	d="
M254.000000,59.970253 
	C271.127869,59.970245 287.755707,59.970245 304.675720,59.970245 
	C304.675720,62.620747 304.675720,64.843727 304.675720,67.348167 
	C206.210785,67.348167 107.966995,67.348167 9.329729,67.348167 
	C9.329729,65.055817 9.329729,62.840359 9.329729,59.970257 
	C90.665039,59.970257 172.082520,59.970257 254.000000,59.970253 
z"/>
<path fill="#FF1616" opacity="1.000000" stroke="none" 
	d="
M228.000000,74.003204 
	C253.782913,74.003204 279.065826,74.003204 304.641357,74.003204 
	C304.641357,76.481056 304.641357,78.546211 304.641357,80.970505 
	C206.197693,80.970505 107.874596,80.970505 9.260021,80.970505 
	C9.260021,78.767036 9.260021,76.687943 9.260021,74.003197 
	C82.043968,74.003197 154.771988,74.003197 228.000000,74.003204 
z"/>
<path fill="#F7F7F8" opacity="1.000000" stroke="none" 
	d="
M143.072235,43.013744 
	C140.927185,43.013668 139.272507,43.013668 137.339417,43.013668 
	C137.339417,33.704437 137.339417,24.556168 137.339417,15.074508 
	C150.443008,15.074508 163.403534,14.995770 176.360428,15.177305 
	C177.924484,15.199220 180.444717,16.328751 180.796707,17.474764 
	C181.343246,19.254227 181.036774,21.951323 179.954987,23.424629 
	C178.248367,25.748892 175.598953,27.380899 173.333328,29.319004 
	C175.477875,30.584133 178.113693,31.377674 179.474899,33.150116 
	C180.918549,35.029900 181.919418,37.949059 181.598267,40.197891 
	C181.430832,41.370350 178.021194,42.821831 176.044586,42.870480 
	C165.222641,43.136829 154.390961,43.007317 143.072235,43.013744 
M143.247162,19.669199 
	C142.710083,21.996387 142.173004,24.323578 141.631927,26.668070 
	C160.649185,29.992361 173.908203,27.230787 176.002716,19.485992 
	C165.302948,19.485992 154.715332,19.485992 143.247162,19.669199 
M171.204666,38.891396 
	C173.066940,38.891396 174.929214,38.891396 176.791489,38.891396 
	C176.852982,38.169048 176.914490,37.446701 176.975998,36.724358 
	C166.300491,30.095831 154.254883,31.744207 142.261658,31.531443 
	C142.261658,34.344532 142.261658,36.406002 142.261658,38.896526 
	C151.796600,38.896526 161.035950,38.896526 171.204666,38.891396 
z"/>
<path fill="#F1F1F2" opacity="1.000000" stroke="none" 
	d="
M185.977264,28.923670 
	C186.289658,22.950066 190.031952,19.992254 194.487305,17.805258 
	C204.332108,12.972727 214.649384,12.893610 225.130188,15.203870 
	C226.569687,15.521174 227.975601,15.990812 229.695145,16.473618 
	C229.695145,18.015650 229.695145,19.739183 229.695145,21.592619 
	C221.371536,18.110943 212.918686,17.059687 204.209000,19.030388 
	C201.957031,19.539927 199.368454,19.886156 197.676636,21.236917 
	C195.131989,23.268614 191.582199,26.093641 191.542938,28.629131 
	C191.504318,31.123575 194.807800,34.730305 197.515671,36.019001 
	C207.985413,41.001656 218.773987,40.123020 229.671799,35.937908 
	C229.774490,36.745560 229.910812,37.498512 229.955643,38.256874 
	C230.003952,39.073952 229.966568,39.896095 229.966568,40.718922 
	C218.177307,44.683697 206.660538,45.070316 195.331787,40.013657 
	C190.664444,37.930359 186.649689,35.023872 185.977264,28.923670 
z"/>
<path fill="#F3F3F4" opacity="1.000000" stroke="none" 
	d="
M97.494087,33.243431 
	C94.801361,36.438526 92.424622,39.425205 89.574791,43.006386 
	C88.214752,43.006386 85.733620,43.006386 83.748360,43.006386 
	C90.770172,34.086052 97.934448,24.984737 105.422119,15.472588 
	C106.841331,15.472588 108.988167,15.472588 110.132988,15.472588 
	C117.880157,24.890623 125.188660,33.775383 132.611267,42.798851 
	C130.346375,42.798851 127.961311,42.798851 125.474892,42.798851 
	C122.593658,36.238911 106.347000,30.396935 97.494087,33.243431 
M110.166328,29.151386 
	C111.864944,29.510563 113.563568,29.869738 116.554100,30.502090 
	C113.166267,26.490097 110.663498,23.526232 107.830605,20.171421 
	C105.803963,22.812784 104.182762,24.925722 102.270187,27.418421 
	C105.188400,28.079342 107.280998,28.553272 110.166328,29.151386 
z"/>
<path fill="#E8E8EA" opacity="1.000000" stroke="none" 
	d="
M190.863754,115.115997 
	C191.556458,112.276588 191.981766,109.194916 192.407059,106.113243 
	C192.763214,106.119659 193.119385,106.126076 193.475555,106.132492 
	C193.475555,110.943108 193.475555,115.753731 193.475555,121.073830 
	C188.851242,119.951927 188.345901,114.252930 184.119919,111.569855 
	C184.119919,114.769135 184.119919,117.865112 184.119919,120.961090 
	C183.579285,120.989388 183.038651,121.017677 182.498016,121.045967 
	C179.717407,116.523697 182.429626,111.299934 180.777130,105.565407 
	C186.583878,107.143158 187.644730,112.031433 190.863754,115.115997 
z"/>
<path fill="#D8DADB" opacity="1.000000" stroke="none" 
	d="
M118.507294,117.390556 
	C120.032867,114.036118 121.277695,110.963730 122.760429,108.010788 
	C123.189232,107.156807 124.228943,106.299782 125.127930,106.112282 
	C125.636368,106.006248 126.690033,107.138344 127.048515,107.919182 
	C128.959808,112.082245 130.729111,116.310501 132.367325,121.339699 
	C127.314896,116.463272 122.440926,116.193527 117.189316,120.652565 
	C117.565254,119.674400 117.941193,118.696243 118.507294,117.390556 
z"/>
<path fill="#E8E9EA" opacity="1.000000" stroke="none" 
	d="
M219.256805,118.512070 
	C214.693024,121.910378 210.601578,121.869209 207.707291,118.572830 
	C205.071625,115.571007 204.976578,112.213135 207.274948,109.023903 
	C209.746399,105.594498 214.572433,104.993179 218.426392,107.429115 
	C218.742752,107.629059 218.818298,108.209969 219.419479,109.505386 
	C217.298813,109.015099 215.878159,108.500717 214.426453,108.388710 
	C211.131134,108.134438 208.424225,109.822319 208.630051,112.968567 
	C208.761002,114.970451 211.015289,117.762054 212.921524,118.403038 
	C214.263077,118.854141 216.620667,116.283653 218.862701,114.845459 
	C218.908554,115.160545 219.125595,116.652168 219.256805,118.512070 
z"/>
<path fill="#E6E7E8" opacity="1.000000" stroke="none" 
	d="
M95.336525,106.421913 
	C96.973373,106.039932 98.397736,105.685326 99.603943,106.050766 
	C101.983810,106.771790 105.382202,107.309311 106.247612,109.002235 
	C107.210930,110.886703 105.822899,113.973160 104.419197,116.407372 
	C105.240662,117.780571 106.062126,119.153770 106.883583,120.526970 
	C106.681732,120.785225 106.479881,121.043480 106.278023,121.301727 
	C103.892410,119.531235 101.506798,117.760742 98.662056,115.649506 
	C97.753746,118.195587 97.217468,119.698830 96.681190,121.202072 
	C96.129265,121.150101 95.577332,121.098122 95.025406,121.046150 
	C95.025406,116.289040 95.025406,111.531929 95.336525,106.421913 
M98.008965,113.870216 
	C98.982986,113.962860 100.103828,114.404297 100.898117,114.069954 
	C102.235100,113.507172 103.364708,112.451767 104.581543,111.603584 
	C103.423431,110.491478 102.407951,109.125641 101.052879,108.363892 
	C100.259712,107.918007 98.924866,108.435692 97.536713,108.542824 
	C97.536713,110.289864 97.536713,111.746216 98.008965,113.870216 
z"/>
<path fill="#E1E2E3" opacity="1.000000" stroke="none" 
	d="
M142.417740,110.809937 
	C146.651138,104.987190 150.601654,104.405884 155.549881,109.090805 
	C151.033691,109.406616 144.196625,106.076523 144.970764,114.256271 
	C145.580933,120.703499 151.076080,118.019974 156.186874,117.516869 
	C152.866974,121.274910 149.864731,121.822357 146.694717,120.507759 
	C142.596756,118.808350 141.271942,115.448433 142.417740,110.809937 
z"/>
<path fill="#D7D8DA" opacity="1.000000" stroke="none" 
	d="
M169.046768,107.422539 
	C169.072113,112.183464 169.072113,116.485046 169.072113,121.048012 
	C168.042053,120.913025 166.901199,120.856537 166.896454,120.749512 
	C166.691498,116.141853 166.587402,111.529701 166.471008,106.918098 
	C167.321136,106.933136 168.171280,106.948166 169.046768,107.422539 
z"/>
<path fill="#E61617" opacity="1.000000" stroke="none" 
	d="
M301.300537,112.764328 
	C302.072876,109.503708 304.072479,109.213249 306.064270,110.750732 
	C306.746613,111.277420 306.866882,113.922882 306.235809,114.502342 
	C304.268555,116.308670 302.356476,115.774597 301.300537,112.764328 
z"/>
<path fill="#1D2630" opacity="1.000000" stroke="none" 
	d="
M143.687439,19.577595 
	C154.715332,19.485992 165.302948,19.485992 176.002716,19.485992 
	C173.908203,27.230787 160.649185,29.992361 141.631927,26.668070 
	C142.173004,24.323578 142.710083,21.996387 143.687439,19.577595 
z"/>
<path fill="#18202B" opacity="1.000000" stroke="none" 
	d="
M170.739990,38.893959 
	C161.035950,38.896526 151.796600,38.896526 142.261658,38.896526 
	C142.261658,36.406002 142.261658,34.344532 142.261658,31.531443 
	C154.254883,31.744207 166.300491,30.095831 176.975998,36.724358 
	C176.914490,37.446701 176.852982,38.169048 176.791489,38.891396 
	C174.929214,38.891396 173.066940,38.891396 170.739990,38.893959 
z"/>
<path fill="#1B242E" opacity="1.000000" stroke="none" 
	d="
M109.769958,29.089294 
	C107.280998,28.553272 105.188400,28.079342 102.270187,27.418421 
	C104.182762,24.925722 105.803963,22.812784 107.830605,20.171421 
	C110.663498,23.526232 113.166267,26.490097 116.554100,30.502090 
	C113.563568,29.869738 111.864944,29.510563 109.769958,29.089294 
z"/>
<path fill="#2B333D" opacity="1.000000" stroke="none" 
	d="
M97.772842,113.536392 
	C97.536713,111.746216 97.536713,110.289864 97.536713,108.542824 
	C98.924866,108.435692 100.259712,107.918007 101.052879,108.363892 
	C102.407951,109.125641 103.423431,110.491478 104.581543,111.603577 
	C103.364708,112.451767 102.235100,113.507172 100.898117,114.069954 
	C100.103828,114.404297 98.982986,113.962860 97.772842,113.536392 
z"/>
</svg>